<?xml version="1.0" encoding="UTF-8"?>
<!DOCTYPE svg PUBLIC "-//W3C//DTD SVG 1.0//EN" "http://www.w3.org/TR/2001/REC-SVG-20010904/DTD/svg10.dtd">
<!-- Creator: CorelDRAW 2019 (64-Bit) -->
<?xml-stylesheet href="55.css" type="text/css"?>
<svg xmlns="http://www.w3.org/2000/svg" xml:space="preserve" width="39.5132mm" height="44mm" version="1.0" style="shape-rendering:geometricPrecision; text-rendering:geometricPrecision; image-rendering:optimizeQuality; fill-rule:evenodd; clip-rule:evenodd"
viewBox="0 0 4605.79 5128.78"
 xmlns:xlink="http://www.w3.org/1999/xlink"
 xmlns:xodm="http://www.corel.com/coreldraw/odm/2003">
 <g id="Слой_x0020_1">
  <metadata id="CorelCorpID_0Corel-Layer"/>
  <path class="path" d="M3374.07 825.59l-0.84 714.72 98.57 75.85c203.82,183.68 409.05,528.45 463.63,805.23 265.09,1344.65 -784.76,2334.98 -2033.02,2059.64 -719.54,-158.72 -1252.47,-770.79 -1265.79,-1600.46 -15.05,-936.79 -17.63,-1925.64 -0.13,-2861.8 -136.13,-22.25 -480.88,-27.82 -610.08,0.59 -47.82,152.44 -16.12,1581.08 -16.12,1861.6 0,668.25 -25.17,1154.25 139.72,1760.6 65.59,241.2 202.08,461.36 327.73,626.5 460.91,605.82 1167.28,882.17 2002.23,859.43 946.15,-25.77 1847.81,-774.04 2066.24,-1729.16 179.45,-784.7 -54.81,-1662.9 -591.73,-2175.15 -89.91,-85.78 -401.02,-367.52 -580.42,-397.58z"/>
  <path class="path2" d="M1157.46 1051.12l-5.99 2254.29 622.73 1.12c9.61,-377.99 2.42,-762.05 2.44,-1138.55 0.01,-175.65 12.67,-485.7 11.11,-752.97l147.92 85.4c64.23,37.08 142.92,28.18 197.31,-16.32l135.05 -77.97 1.45 1894.15 621.92 6.71 -0.07 -2260.72 144.8 -83.61c82.81,-47.81 111.45,-154.69 63.63,-237.51l0 0c-47.81,-82.81 -154.69,-111.45 -237.5,-63.63l-842.06 486.16 -839.56 -484.71c-82.81,-47.82 -189.7,-19.18 -237.5,63.63l0 0c-47.82,82.83 -19.18,189.71 63.63,237.51l150.71 87.01z"/>
 </g>
</svg>
